<?xml version="1.0" encoding="UTF-8" standalone="no"?>
<!-- Created with Inkscape (http://www.inkscape.org/) -->

<svg
   width="46.073673mm"
   height="46.829376mm"
   viewBox="0 0 46.073673 46.829376"
   version="1.1"
   id="svg1"
   xml:space="preserve"
   inkscape:version="1.3 (0e150ed6c4, 2023-07-21)"
   sodipodi:docname="meus icones.svg"
   xmlns:inkscape="http://www.inkscape.org/namespaces/inkscape"
   xmlns:sodipodi="http://sodipodi.sourceforge.net/DTD/sodipodi-0.dtd"
   xmlns="http://www.w3.org/2000/svg"
   xmlns:svg="http://www.w3.org/2000/svg"><sodipodi:namedview
     id="namedview1"
     pagecolor="#ffffff"
     bordercolor="#000000"
     borderopacity="0.25"
     inkscape:showpageshadow="2"
     inkscape:pageopacity="0.0"
     inkscape:pagecheckerboard="0"
     inkscape:deskcolor="#d1d1d1"
     inkscape:document-units="mm"
     inkscape:zoom="1.5137649"
     inkscape:cx="-326.66896"
     inkscape:cy="2426.7309"
     inkscape:window-width="1920"
     inkscape:window-height="991"
     inkscape:window-x="-9"
     inkscape:window-y="-9"
     inkscape:window-maximized="1"
     inkscape:current-layer="layer1" /><defs
     id="defs1" /><g
     inkscape:label="Camada 1"
     inkscape:groupmode="layer"
     id="layer1"
     transform="translate(-598.47975,-612.16417)"><path
       id="path262219"
       style="fill:#000000;stroke-width:1.11866"
       d="m 610.309,612.16418 v 3.58893 l -2.16162,0.63614 c -5.35645,1.57589 -8.21779,5.83987 -7.82072,11.65407 0.25905,3.79305 1.78762,6.29189 4.73046,7.73286 1.70523,0.83499 3.48072,1.30617 8.65581,2.29702 3.80496,0.72851 4.83182,1.23555 5.58002,2.7559 1.07262,2.17963 -0.27976,4.65909 -2.98277,5.46892 -1.57971,0.47327 -6.37285,0.44657 -8.22223,-0.046 -1.98046,-0.52747 -4.1916,-1.5245 -5.36505,-2.41949 l -0.95911,-0.73174 -1.64176,2.88613 -1.64228,2.88664 0.66094,0.52297 c 1.57681,1.24742 5.48804,2.91592 7.9127,3.3755 1.3837,0.26228 2.68225,0.52021 2.88561,0.57361 1.02646,1.47227 0.0566,1.96889 0.37,3.66541 h 2.22002 2.22002 c 0,-1.82188 -0.31866,-2.01016 0.36949,-3.66954 0.20351,-0.0557 1.22656,-0.26165 2.27324,-0.45734 3.77452,-0.70619 6.9764,-3.06058 8.40207,-6.17843 0.1535,-0.33568 0.27867,-0.75256 0.38138,-1.21492 -0.49719,-0.0107 -1.02913,-0.0206 -1.34979,-0.0362 h -0.003 c -0.23092,-0.0117 -0.42411,-0.0215 -0.61546,-0.0429 0.27197,0.0304 -0.56566,-0.0477 -1.02423,-0.31058 -0.712,-0.40835 -1.18552,-1.02963 -1.46399,-1.64176 -0.27382,-0.60184 -0.45514,-1.42087 -0.22376,-2.27686 0.0679,-0.25099 0.23002,-0.56722 0.19482,-0.49558 0.0401,-0.0814 0.088,-0.17633 0.14676,-0.28577 0.10895,-0.20291 0.24865,-0.45457 0.41599,-0.74776 0.3344,-0.5859 0.77426,-1.33347 1.24799,-2.1208 0.25218,-0.41912 0.74813,-1.24316 1.10433,-1.83503 -1.68263,-2.14124 -4.43288,-3.24323 -10.59626,-4.59507 -1.95345,-0.42846 -4.08447,-1.06743 -4.73563,-1.41955 -2.31614,-1.25245 -2.82053,-3.98991 -1.05936,-5.75107 1.10987,-1.10988 2.68342,-1.54874 5.55366,-1.54874 2.74312,0 4.85731,0.54998 7.37216,1.91719 l 1.80299,0.98031 1.43661,-2.91972 c 0.79015,-1.60593 1.37743,-2.97681 1.30483,-3.04581 -0.0726,-0.0691 -0.99809,-0.59433 -2.05621,-1.16737 -2.14706,-1.16271 -4.98238,-2.09817 -7.32513,-2.41639 L 614.74863,615.52 v -3.35587 h -2.22002 z" /><g
       id="path262223"
       style="fill:#ff00ff"
       transform="matrix(1.230987,0,0,1.230987,-135.71051,-150.78218)"><path
         style="color:#000000;fill:#ff00ff;-inkscape-stroke:none"
         d="m 622.58439,656.66639 -0.4259,-0.2249 c -0.42829,-0.22599 -0.78332,-0.58181 -1.01766,-1.01064 -0.0609,-0.11146 -0.10306,-0.26763 -0.1223,-0.43293 -0.0192,-0.16529 -0.03,-0.37921 -0.0394,-0.7267 -0.0187,-0.69498 -0.0282,-1.9187 -0.0422,-4.18312 l -0.0267,-4.35459 -1.45762,-0.0225 c -0.70264,-0.0107 -1.214,-0.0234 -1.57007,-0.0407 -0.17804,-0.009 -0.3164,-0.0182 -0.43012,-0.0309 -0.11372,-0.0127 -0.1409,0.0344 -0.38232,-0.10401 -0.33423,-0.19169 -0.56436,-0.48534 -0.71125,-0.80823 -0.14689,-0.32289 -0.2207,-0.68719 -0.11807,-1.06686 0.0335,-0.1239 0.0512,-0.13667 0.0787,-0.19257 0.0275,-0.0559 0.0605,-0.1209 0.1012,-0.19679 0.0815,-0.15178 0.19098,-0.34869 0.32329,-0.58051 0.26462,-0.46365 0.61936,-1.06545 1.0008,-1.6994 0.75897,-1.26139 2.25353,-3.74665 3.32147,-5.52266 0.9709,-1.61463 1.52469,-2.52181 1.90039,-3.06424 0.18785,-0.27122 0.32977,-0.4551 0.48635,-0.60161 0.0477,-0.0447 0.10939,-0.0519 0.16445,-0.0885 l 0.0338,-0.13353 0.34157,-0.0674 c 0.62963,-0.12233 1.27766,0.0511 1.6783,0.50742 0.11858,0.13506 0.13861,0.189 0.24177,0.34859 0.10315,0.15959 0.23625,0.37138 0.39357,0.6241 0.31463,0.50541 0.72231,1.17046 1.14698,1.87649 0.84659,1.40749 2.33327,3.87616 3.30319,5.48471 0.48665,0.80706 0.93547,1.5677 1.26928,2.14638 0.1669,0.28934 0.30558,0.53296 0.40622,0.71687 0.0503,0.0919 0.0899,0.16918 0.12229,0.23333 0.0324,0.0641 0.0494,0.061 0.09,0.21506 0.13784,0.52379 -0.0295,1.07062 -0.38655,1.4773 -0.17213,0.19606 -0.49631,0.449 -0.9024,0.51164 -0.40609,0.0626 -0.93541,0.0562 -1.98754,0.0562 -0.75346,0 -1.14154,0.005 -1.4028,0.014 -0.004,0.24752 -0.008,0.58252 -0.0112,1.00221 -0.007,0.87589 -0.0109,2.07307 -0.0112,3.3777 -6.2e-4,2.24338 -0.003,3.43192 -0.0183,4.1044 -0.008,0.33623 -0.0168,0.54285 -0.0366,0.70702 -0.0197,0.16416 -0.0645,0.31444 -0.10683,0.40762 -0.21678,0.47728 -0.59254,0.87165 -1.05842,1.11747 l -0.42731,0.2249 h -1.85542 z m 0.27128,-1.09217 h 1.58413 1.58554 l 0.18694,-0.0984 c 0.2377,-0.12543 0.46906,-0.36998 0.5749,-0.60301 0.0103,-0.0227 0.006,0.006 0.0168,-0.0871 0.0112,-0.0929 0.0222,-0.27918 0.0295,-0.6016 0.0145,-0.64485 0.0163,-1.83621 0.0168,-4.0791 3.4e-4,-1.30694 0.004,-2.50614 0.0112,-3.38613 0.004,-0.43999 0.008,-0.7998 0.0127,-1.05561 0.002,-0.12791 0.004,-0.22955 0.007,-0.30502 10e-4,-0.0377 0.002,-0.0679 0.004,-0.097 7.2e-4,-0.0145 0.002,-0.0281 0.004,-0.0478 7.1e-4,-0.01 0.003,-0.021 0.006,-0.0394 0.003,-0.0184 0.0292,-0.10742 0.0295,-0.10824 0.0416,-0.10847 0.1399,-0.22782 0.23052,-0.28815 0.0906,-0.0603 0.165,-0.0814 0.2277,-0.097 0.12542,-0.0311 0.2264,-0.0376 0.37531,-0.045 0.29781,-0.0147 0.77124,-0.0168 1.60943,-0.0168 1.05087,0 1.59598,-0.009 1.82168,-0.0435 0.22569,-0.0348 0.09,0.026 0.24738,-0.15321 0.15008,-0.17094 0.18409,-0.35524 0.15181,-0.47791 0.0317,0.12059 0.0147,0.0444 -0.008,-0.001 -0.0231,-0.0458 -0.0599,-0.11528 -0.10683,-0.20101 -0.0938,-0.17144 -0.22917,-0.41077 -0.39358,-0.69577 -0.32881,-0.57003 -0.77458,-1.32635 -1.25802,-2.1281 -0.97023,-1.60905 -2.45763,-4.0766 -3.3046,-5.48472 -0.42211,-0.70176 -0.8266,-1.36358 -1.13715,-1.86244 -0.15527,-0.24943 -0.28769,-0.45928 -0.38514,-0.61003 -0.0974,-0.15077 -0.21246,-0.29638 -0.14478,-0.21928 -0.17419,-0.1984 -0.25458,-0.23272 -0.64939,-0.15603 0.004,-7.2e-4 0.0499,-0.0338 -0.003,0.0155 -0.0527,0.0493 -0.16677,0.18228 -0.33453,0.4245 -0.33553,0.48443 -0.89313,1.39322 -1.86244,3.0052 -1.068,1.77611 -2.56238,4.26107 -3.32148,5.52267 -0.37759,0.62755 -0.72791,1.22481 -0.98674,1.6783 -0.12941,0.22675 -0.2367,0.41895 -0.31064,0.55663 -0.037,0.0688 -0.0652,0.12406 -0.0829,0.16023 -0.0178,0.0362 -0.0289,0.0872 -0.004,-0.004 -0.0116,0.043 -0.007,0.18982 0.0576,0.33172 0.0577,0.12695 0.15434,0.22417 0.23193,0.27972 0.0741,0.008 0.19093,0.016 0.35141,0.0239 0.33126,0.0161 0.83498,0.0302 1.53212,0.0407 l 2.5273,0.0379 0.0323,5.42287 c 0.014,2.26379 0.0241,3.49069 0.0422,4.16062 0.009,0.33497 0.021,0.53225 0.0323,0.62972 0.0114,0.0975 0.007,0.0561 -0.004,0.0351 0.12612,0.23077 0.35399,0.45568 0.56928,0.56927 z"
         id="path262224" /></g><path
       style="color:#000000;fill:#000000;stroke-width:0.885911;-inkscape-stroke:none"
       d="m 630.68279,657.56561 -0.52427,-0.27684 c -0.52722,-0.2782 -0.96426,-0.71621 -1.25273,-1.24409 -0.075,-0.1372 -0.12687,-0.32945 -0.15055,-0.53293 -0.0236,-0.20347 -0.0369,-0.4668 -0.0485,-0.89456 -0.023,-0.85551 -0.0347,-2.36189 -0.0519,-5.14937 l -0.0329,-5.36044 -1.79431,-0.0277 c -0.86494,-0.0132 -1.49442,-0.0288 -1.93273,-0.0501 -0.21917,-0.0111 -0.38949,-0.0224 -0.52948,-0.038 -0.13998,-0.0156 -0.17344,0.0423 -0.47063,-0.12804 -0.41143,-0.23597 -0.69472,-0.59745 -0.87554,-0.99492 -0.18082,-0.39747 -0.27167,-0.84592 -0.14534,-1.31329 0.0412,-0.15252 0.063,-0.16824 0.0969,-0.23705 0.0339,-0.0688 0.0745,-0.14883 0.12458,-0.24225 0.10032,-0.18684 0.23509,-0.42923 0.39796,-0.7146 0.32575,-0.57075 0.76243,-1.31155 1.23197,-2.09194 0.93429,-1.55275 2.77407,-4.61208 4.08869,-6.79832 1.19517,-1.98759 1.87687,-3.10432 2.33936,-3.77204 0.23124,-0.33387 0.40594,-0.56022 0.59869,-0.74057 0.0587,-0.055 0.13465,-0.0639 0.20243,-0.10895 l 0.0416,-0.16437 0.42047,-0.083 c 0.77506,-0.15059 1.57278,0.0629 2.06596,0.62463 0.14597,0.16626 0.17063,0.23266 0.29762,0.42911 0.12697,0.19645 0.29082,0.45716 0.48448,0.76826 0.3873,0.62215 0.88915,1.44082 1.41192,2.30993 1.04214,1.7326 2.87222,4.7715 4.06618,6.75161 0.59906,0.99348 1.15155,1.92982 1.56247,2.64216 0.20545,0.35618 0.37616,0.65607 0.50005,0.88246 0.0619,0.11313 0.11066,0.20826 0.15054,0.28723 0.0399,0.0789 0.0608,0.0751 0.11078,0.26473 0.16968,0.64478 -0.0363,1.31792 -0.47583,1.81854 -0.21189,0.24135 -0.61095,0.55272 -1.11085,0.62982 -0.49989,0.0771 -1.15147,0.0692 -2.44663,0.0692 -0.9275,0 -1.40522,0.006 -1.72683,0.0172 -0.005,0.30469 -0.01,0.71707 -0.0138,1.23371 -0.009,1.07821 -0.0134,2.55192 -0.0138,4.1579 -7.7e-4,2.76157 -0.004,4.22465 -0.0225,5.05246 -0.01,0.4139 -0.0207,0.66825 -0.0451,0.87034 -0.0243,0.20208 -0.0794,0.38707 -0.1315,0.50177 -0.26686,0.58753 -0.72941,1.07299 -1.3029,1.37559 l -0.52602,0.27685 h -2.28399 z m 0.33395,-1.34444 h 1.95004 1.95178 l 0.23012,-0.12113 c 0.2926,-0.1544 0.57741,-0.45544 0.70769,-0.7423 0.0127,-0.0279 0.007,0.007 0.0207,-0.10722 0.0138,-0.11436 0.0273,-0.34367 0.0363,-0.74056 0.0179,-0.7938 0.0201,-2.26035 0.0207,-5.02132 4.2e-4,-1.60883 0.005,-3.08502 0.0138,-4.16828 0.005,-0.54162 0.01,-0.98454 0.0156,-1.29944 0.002,-0.15746 0.005,-0.28258 0.009,-0.37548 10e-4,-0.0464 0.002,-0.0836 0.005,-0.1194 8.9e-4,-0.0178 0.002,-0.0346 0.005,-0.0589 8.8e-4,-0.0123 0.004,-0.0258 0.007,-0.0485 0.004,-0.0226 0.0359,-0.13223 0.0363,-0.13324 0.0512,-0.13352 0.17222,-0.28044 0.28377,-0.35471 0.11153,-0.0742 0.20311,-0.1002 0.2803,-0.1194 0.15439,-0.0383 0.27869,-0.0463 0.462,-0.0554 0.3666,-0.0181 0.94938,-0.0207 1.98119,-0.0207 1.2936,0 1.96463,-0.0111 2.24246,-0.0536 0.27782,-0.0428 0.11079,0.032 0.30452,-0.1886 0.18475,-0.21042 0.22661,-0.43729 0.18688,-0.5883 0.039,0.14845 0.0181,0.0547 -0.01,-10e-4 -0.0284,-0.0564 -0.0737,-0.14191 -0.13151,-0.24744 -0.11546,-0.21104 -0.2821,-0.50565 -0.48449,-0.85648 -0.40476,-0.7017 -0.9535,-1.63272 -1.5486,-2.61967 -1.19435,-1.98072 -3.02532,-5.01824 -4.06792,-6.75161 -0.51962,-0.86386 -1.01754,-1.67855 -1.39982,-2.29264 -0.19114,-0.30705 -0.35414,-0.56537 -0.4741,-0.75094 -0.1199,-0.1856 -0.26154,-0.36484 -0.17823,-0.26993 -0.21442,-0.24423 -0.31338,-0.28648 -0.79939,-0.19208 0.005,-8.8e-4 0.0614,-0.0416 -0.004,0.0191 -0.0649,0.0607 -0.20529,0.22438 -0.4118,0.52255 -0.41303,0.59633 -1.09943,1.71503 -2.29264,3.69936 -1.3147,2.18637 -3.15426,5.24532 -4.0887,6.79834 -0.46481,0.7725 -0.89605,1.50772 -1.21466,2.06596 -0.15931,0.27913 -0.29138,0.51572 -0.3824,0.68521 -0.0455,0.0847 -0.0803,0.15271 -0.10205,0.19724 -0.0219,0.0446 -0.0356,0.10734 -0.005,-0.005 -0.0143,0.0529 -0.009,0.23367 0.0709,0.40835 0.071,0.15627 0.18999,0.27595 0.28551,0.34433 0.0912,0.01 0.23503,0.0197 0.43258,0.0294 0.40778,0.0198 1.02785,0.0372 1.88602,0.0501 l 3.11107,0.0466 0.0398,6.67549 c 0.0172,2.78669 0.0297,4.29699 0.0519,5.12167 0.0111,0.41234 0.0258,0.65519 0.0398,0.77517 0.014,0.12002 0.009,0.0691 -0.005,0.0432 0.15525,0.28408 0.43575,0.56094 0.70077,0.70076 z"
       id="path262220" /></g></svg>
